# xmcd
#
# Track frame offsets:
#	150
#	19272
#	38780
#	58820
#	79232
#	102345
#	134132
#	156790
#	175880
#	196295
#	216837
#	237662
#
# Disc length: 3393 seconds
#
# Revision: 0
# Processed by: cddbd v1.5.2PL0 Copyright (c) Steve Scherf et al.
# Submitted via: dBpowerAMP V4.0
#
DISCID=b00d3f0c
DTITLE=J. Blackfoot - Same Time, Same Place
DYEAR=1900
DGENRE=Blues
TTITLE0=Same Time, Same Place
TTITLE1=Your Man is Home Tonight
TTITLE2=Last One Of Your List
TTITLE3=Just Got Paid
TTITLE4=Two Different People
TTITLE5=In My Bedroom
TTITLE6=Special Kind of Lady
TTITLE7=One Man Too Many
TTITLE8=I Gotta Do What I Gotta Do
TTITLE9=Your Spell is Gone
TTITLE10=Love On the Phone
TTITLE11=Happy Blues
EXTD=
EXTT0=
EXTT1=
EXTT2=
EXTT3=
EXTT4=
EXTT5=
EXTT6=
EXTT7=
EXTT8=
EXTT9=
EXTT10=
EXTT11=
PLAYORDER=
